<svg width="590" height="584" viewBox="0 0 590 584" fill="none" xmlns="http://www.w3.org/2000/svg">
<path d="M53.2251 292.906C53.7696 245.353 68.403 199.029 95.2749 159.792C122.147 120.556 160.05 90.1684 204.192 72.4736C248.334 54.7787 296.732 50.5708 343.265 60.382C389.799 70.1932 432.378 93.5828 465.618 127.593C498.859 161.603 521.267 204.707 530.01 251.453C538.754 298.198 533.439 346.487 514.738 390.212C496.037 433.938 464.79 471.136 424.948 497.102C385.107 523.069 338.46 536.638 290.906 536.093L292.1 431.849C319.036 432.157 345.458 424.471 368.026 409.763C390.593 395.055 408.292 373.985 418.885 349.217C429.478 324.45 432.488 297.098 427.536 270.619C422.584 244.141 409.891 219.726 391.062 200.461C372.234 181.197 348.116 167.948 321.758 162.391C295.4 156.833 267.986 159.217 242.982 169.24C217.979 179.263 196.509 196.475 181.288 218.7C166.067 240.925 157.778 267.164 157.47 294.1L53.2251 292.906Z" fill="white"/>
</svg>
